<?xml version="1.0" encoding="UTF-8"?>
<svg version="1.1" xmlns="http://www.w3.org/2000/svg" width="196" height="196">
<path d="M0 0 C64.68 0 129.36 0 196 0 C196 64.68 196 129.36 196 196 C131.32 196 66.64 196 0 196 C0 131.32 0 66.64 0 0 Z " fill="#F8F8F8" transform="translate(0,0)"/>
<path d="M0 0 C1.09836182 0.00491455 2.19672363 0.0098291 3.32836914 0.01489258 C15.93376716 0.19714605 27.30620611 2.24871451 37.72422791 9.84268188 C40.5384224 13.49937937 40.19315659 16.70986208 40.15844727 21.20849609 C40.17137062 22.55553871 40.17137062 22.55553871 40.18455505 23.92979431 C40.20725972 26.89880185 40.20046694 29.86686877 40.19140625 32.8359375 C40.19664053 34.90093263 40.20291629 36.96592536 40.21018982 39.03091431 C40.22060288 43.36024214 40.2160205 47.68924149 40.20141602 52.01855469 C40.18424326 57.56271353 40.20770047 63.10583456 40.24290562 68.64987755 C40.26488478 72.91534271 40.26343656 77.18055988 40.2551403 81.446064 C40.25432076 83.48977419 40.26118477 85.53350258 40.27591133 87.57715988 C40.29336277 90.43798972 40.27880881 93.29695929 40.25610352 96.15771484 C40.27364182 97.42035912 40.27364182 97.42035912 40.29153442 98.70851135 C40.19638676 104.61096069 38.8655329 107.18469936 34.625 111.3125 C21.27573259 120.68941456 -1.41085317 120.02527957 -16.83642578 117.98730469 C-25.08115904 116.4822701 -32.86774496 113.70894178 -38.9414978 107.78451538 C-41.05815602 104.13442564 -40.82563315 100.52385993 -40.82666016 96.41650391 C-40.83834229 95.51847549 -40.85002441 94.62044708 -40.86206055 93.69520569 C-40.8956563 90.72638279 -40.90638413 87.75805876 -40.9140625 84.7890625 C-40.92624208 82.72406843 -40.93872806 80.65907614 -40.95150757 78.59408569 C-40.97398753 74.2648319 -40.98353814 69.93575419 -40.98583984 65.60644531 C-40.99112399 60.06205043 -41.04246077 54.51912231 -41.10535622 48.97512245 C-41.14624116 44.70966844 -41.15548218 40.44456839 -41.15595627 36.178936 C-41.16133982 34.13517418 -41.17820186 32.09140885 -41.20680618 30.04784012 C-41.24351709 27.18657711 -41.23582405 24.32865161 -41.21728516 21.46728516 C-41.23773895 20.62552231 -41.25819275 19.78375946 -41.27926636 18.91648865 C-41.21737505 15.43581706 -41.11207767 13.20503522 -38.84760666 10.4629631 C-28.09067276 1.05355624 -13.72265498 -0.07274051 0 0 Z " fill="#FDFDFD" transform="translate(98.375,38.6875)"/>
<path d="M0 0 C1.09836182 0.00491455 2.19672363 0.0098291 3.32836914 0.01489258 C15.93376716 0.19714605 27.30620611 2.24871451 37.72422791 9.84268188 C40.5384224 13.49937937 40.19315659 16.70986208 40.15844727 21.20849609 C40.17137062 22.55553871 40.17137062 22.55553871 40.18455505 23.92979431 C40.20725972 26.89880185 40.20046694 29.86686877 40.19140625 32.8359375 C40.19664053 34.90093263 40.20291629 36.96592536 40.21018982 39.03091431 C40.22060288 43.36024214 40.2160205 47.68924149 40.20141602 52.01855469 C40.18424326 57.56271353 40.20770047 63.10583456 40.24290562 68.64987755 C40.26488478 72.91534271 40.26343656 77.18055988 40.2551403 81.446064 C40.25432076 83.48977419 40.26118477 85.53350258 40.27591133 87.57715988 C40.29336277 90.43798972 40.27880881 93.29695929 40.25610352 96.15771484 C40.27364182 97.42035912 40.27364182 97.42035912 40.29153442 98.70851135 C40.19638676 104.61096069 38.8655329 107.18469936 34.625 111.3125 C21.27573259 120.68941456 -1.41085317 120.02527957 -16.83642578 117.98730469 C-25.08115904 116.4822701 -32.86774496 113.70894178 -38.9414978 107.78451538 C-41.05815602 104.13442564 -40.82563315 100.52385993 -40.82666016 96.41650391 C-40.83834229 95.51847549 -40.85002441 94.62044708 -40.86206055 93.69520569 C-40.8956563 90.72638279 -40.90638413 87.75805876 -40.9140625 84.7890625 C-40.92624208 82.72406843 -40.93872806 80.65907614 -40.95150757 78.59408569 C-40.97398753 74.2648319 -40.98353814 69.93575419 -40.98583984 65.60644531 C-40.99112399 60.06205043 -41.04246077 54.51912231 -41.10535622 48.97512245 C-41.14624116 44.70966844 -41.15548218 40.44456839 -41.15595627 36.178936 C-41.16133982 34.13517418 -41.17820186 32.09140885 -41.20680618 30.04784012 C-41.24351709 27.18657711 -41.23582405 24.32865161 -41.21728516 21.46728516 C-41.23773895 20.62552231 -41.25819275 19.78375946 -41.27926636 18.91648865 C-41.21737505 15.43581706 -41.11207767 13.20503522 -38.84760666 10.4629631 C-28.09067276 1.05355624 -13.72265498 -0.07274051 0 0 Z M-38.375 21.3125 C-38.467691 32.17831278 -38.53876054 43.04403146 -38.58224869 53.91015911 C-38.60312116 58.95579178 -38.63143274 64.0011539 -38.67675781 69.04663086 C-38.72022748 73.91605602 -38.74413967 78.78522099 -38.75450897 83.65482521 C-38.76189832 85.5123892 -38.77632803 87.369939 -38.79792023 89.2273922 C-38.82696935 91.82988604 -38.83095541 94.43130559 -38.82910156 97.03393555 C-38.84348267 97.8014212 -38.85786377 98.56890686 -38.87268066 99.35964966 C-38.84447167 103.02085194 -38.50019652 105.115206 -36.52020264 108.23542786 C-27.04482257 117.4098749 -10.0821613 117.64451149 2.38867188 117.54492188 C13.25432568 117.29953674 27.59912444 116.14102698 35.7723999 108.23542786 C38.15673272 104.47356213 38.15987144 101.34443407 38.07910156 97.03393555 C38.07968567 96.21390549 38.08026978 95.39387543 38.08087158 94.54899597 C38.07809317 91.848634 38.04701345 89.14938698 38.015625 86.44921875 C38.00816173 84.5730703 38.0024692 82.69691404 37.99847412 80.820755 C37.98322458 75.89027261 37.94394857 70.96026391 37.8996582 66.02996826 C37.85869087 60.99595548 37.84045998 55.96186592 37.8203125 50.92773438 C37.7774537 41.05578183 37.70921054 31.18418035 37.625 21.3125 C36.90421768 21.65268158 36.18343536 21.99286316 35.44081116 22.34335327 C23.54562386 27.8707414 12.79994679 29.84357908 -0.3125 29.6875 C-1.5401709 29.67807373 -2.7678418 29.66864746 -4.03271484 29.65893555 C-14.72611232 29.48059383 -23.90707178 28.61844385 -33.56591797 23.7409668 C-34.46647919 23.2872319 -35.36704041 22.83349701 -36.29489136 22.36601257 C-36.98132721 22.01835342 -37.66776306 21.67069427 -38.375 21.3125 Z " fill="#FDFDFD" transform="translate(98.375,38.6875)"/>
<path d="M0 0 C0.66 0 1.32 0 2 0 C2.29390625 1.39412109 2.29390625 1.39412109 2.59375 2.81640625 C4.34612709 10.06006845 5.82488151 15.12303049 12.1953125 19.5703125 C14 21 14 21 14.765625 23.0390625 C16.46600069 25.74029223 18.51591397 26.02546287 21.5078125 26.7734375 C22.20648438 26.93070313 22.90515625 27.08796875 23.625 27.25 C24.33140625 27.42273438 25.0378125 27.59546875 25.765625 27.7734375 C27.5069064 28.19699243 29.2530531 28.60045497 31 29 C31 29.66 31 30.32 31 31 C25.6822785 32.24200752 20.41798672 33.30834212 15 34 C14.95875 34.721875 14.9175 35.44375 14.875 36.1875 C13.60118706 40.28189875 11.46571675 41.52448804 8 44 C7.34 44 6.68 44 6 44 C5.01 48.62 4.02 53.24 3 58 C1.68 58 0.36 58 -1 58 C-1.23783203 56.51886719 -1.23783203 56.51886719 -1.48046875 55.0078125 C-1.71378906 53.72648437 -1.94710937 52.44515625 -2.1875 51.125 C-2.40792969 49.84882812 -2.62835938 48.57265625 -2.85546875 47.2578125 C-3.64414028 43.82878982 -3.64414028 43.82878982 -6.46875 42.70703125 C-7.3040625 42.47371094 -8.139375 42.24039063 -9 42 C-13 37.78378378 -13 37.78378378 -13 34 C-13.73605469 33.86722656 -14.47210938 33.73445313 -15.23046875 33.59765625 C-16.20628906 33.42105469 -17.18210937 33.24445313 -18.1875 33.0625 C-19.15042969 32.88847656 -20.11335938 32.71445313 -21.10546875 32.53515625 C-23.74239972 32.0476265 -26.3719905 31.53328895 -29 31 C-29 30.34 -29 29.68 -29 29 C-27.96359375 28.78085938 -26.9271875 28.56171875 -25.859375 28.3359375 C-24.48929119 28.01687689 -23.11951479 27.69649423 -21.75 27.375 C-21.06808594 27.23449219 -20.38617188 27.09398438 -19.68359375 26.94921875 C-15.76288709 25.99759092 -14.17285659 25.22753571 -11.703125 21.9765625 C-11.14109375 20.99429688 -10.5790625 20.01203125 -10 19 C-9.01 18.34 -8.02 17.68 -7 17 C-2.06063569 13.25159916 -1.31389353 5.71157246 0 0 Z " fill="#F5F5F5" transform="translate(97,78)"/>
<path d="M0 0 C1.09836182 0.00491455 2.19672363 0.0098291 3.32836914 0.01489258 C15.93376716 0.19714605 27.30620611 2.24871451 37.72422791 9.84268188 C40.5384224 13.49937937 40.19315659 16.70986208 40.15844727 21.20849609 C40.17137062 22.55553871 40.17137062 22.55553871 40.18455505 23.92979431 C40.20725972 26.89880185 40.20046694 29.86686877 40.19140625 32.8359375 C40.19664053 34.90093263 40.20291629 36.96592536 40.21018982 39.03091431 C40.22060288 43.36024214 40.2160205 47.68924149 40.20141602 52.01855469 C40.18424326 57.56271353 40.20770047 63.10583456 40.24290562 68.64987755 C40.26488478 72.91534271 40.26343656 77.18055988 40.2551403 81.446064 C40.25432076 83.48977419 40.26118477 85.53350258 40.27591133 87.57715988 C40.29336277 90.43798972 40.27880881 93.29695929 40.25610352 96.15771484 C40.27364182 97.42035912 40.27364182 97.42035912 40.29153442 98.70851135 C40.19638676 104.61096069 38.8655329 107.18469936 34.625 111.3125 C21.27573259 120.68941456 -1.41085317 120.02527957 -16.83642578 117.98730469 C-25.08115904 116.4822701 -32.86774496 113.70894178 -38.9414978 107.78451538 C-41.05815602 104.13442564 -40.82563315 100.52385993 -40.82666016 96.41650391 C-40.83834229 95.51847549 -40.85002441 94.62044708 -40.86206055 93.69520569 C-40.8956563 90.72638279 -40.90638413 87.75805876 -40.9140625 84.7890625 C-40.92624208 82.72406843 -40.93872806 80.65907614 -40.95150757 78.59408569 C-40.97398753 74.2648319 -40.98353814 69.93575419 -40.98583984 65.60644531 C-40.99112399 60.06205043 -41.04246077 54.51912231 -41.10535622 48.97512245 C-41.14624116 44.70966844 -41.15548218 40.44456839 -41.15595627 36.178936 C-41.16133982 34.13517418 -41.17820186 32.09140885 -41.20680618 30.04784012 C-41.24351709 27.18657711 -41.23582405 24.32865161 -41.21728516 21.46728516 C-41.23773895 20.62552231 -41.25819275 19.78375946 -41.27926636 18.91648865 C-41.21737505 15.43581706 -41.11207767 13.20503522 -38.84760666 10.4629631 C-28.09067276 1.05355624 -13.72265498 -0.07274051 0 0 Z M-36.125 9.625 C-38.72597415 12.18503012 -38.72597415 12.18503012 -38.5625 15.875 C-37.10533148 20.09311941 -36.22918719 21.07707143 -32.375 23.3125 C-28.77243277 24.88463481 -25.12955819 26.1533058 -21.375 27.3125 C-20.63765625 27.54195312 -19.9003125 27.77140625 -19.140625 28.0078125 C-2.37275103 32.22951127 18.28610958 30.02455324 33.625 22.3125 C36.0071555 20.48408682 36.0071555 20.48408682 37.625 18.3125 C38.02802902 14.79438593 38.02802902 14.79438593 36.625 11.3125 C28.99954659 3.50548817 15.11962178 1.72230696 4.625 1.3125 C3.87605469 1.27253906 3.12710938 1.23257813 2.35546875 1.19140625 C-10.46108005 0.83007735 -25.3367844 2.13728871 -36.125 9.625 Z M-38.375 21.3125 C-38.467691 32.17831278 -38.53876054 43.04403146 -38.58224869 53.91015911 C-38.60312116 58.95579178 -38.63143274 64.0011539 -38.67675781 69.04663086 C-38.72022748 73.91605602 -38.74413967 78.78522099 -38.75450897 83.65482521 C-38.76189832 85.5123892 -38.77632803 87.369939 -38.79792023 89.2273922 C-38.82696935 91.82988604 -38.83095541 94.43130559 -38.82910156 97.03393555 C-38.84348267 97.8014212 -38.85786377 98.56890686 -38.87268066 99.35964966 C-38.84447167 103.02085194 -38.50019652 105.115206 -36.52020264 108.23542786 C-27.04482257 117.4098749 -10.0821613 117.64451149 2.38867188 117.54492188 C13.25432568 117.29953674 27.59912444 116.14102698 35.7723999 108.23542786 C38.15673272 104.47356213 38.15987144 101.34443407 38.07910156 97.03393555 C38.07968567 96.21390549 38.08026978 95.39387543 38.08087158 94.54899597 C38.07809317 91.848634 38.04701345 89.14938698 38.015625 86.44921875 C38.00816173 84.5730703 38.0024692 82.69691404 37.99847412 80.820755 C37.98322458 75.89027261 37.94394857 70.96026391 37.8996582 66.02996826 C37.85869087 60.99595548 37.84045998 55.96186592 37.8203125 50.92773438 C37.7774537 41.05578183 37.70921054 31.18418035 37.625 21.3125 C36.90421768 21.65268158 36.18343536 21.99286316 35.44081116 22.34335327 C23.54562386 27.8707414 12.79994679 29.84357908 -0.3125 29.6875 C-1.5401709 29.67807373 -2.7678418 29.66864746 -4.03271484 29.65893555 C-14.72611232 29.48059383 -23.90707178 28.61844385 -33.56591797 23.7409668 C-34.46647919 23.2872319 -35.36704041 22.83349701 -36.29489136 22.36601257 C-36.98132721 22.01835342 -37.66776306 21.67069427 -38.375 21.3125 Z " fill="#717171" transform="translate(98.375,38.6875)"/>
<path d="M0 0 C0.66 0 1.32 0 2 0 C2.29390625 1.39412109 2.29390625 1.39412109 2.59375 2.81640625 C4.34612709 10.06006845 5.82488151 15.12303049 12.1953125 19.5703125 C14 21 14 21 14.765625 23.0390625 C16.46600069 25.74029223 18.51591397 26.02546287 21.5078125 26.7734375 C22.20648438 26.93070313 22.90515625 27.08796875 23.625 27.25 C24.33140625 27.42273438 25.0378125 27.59546875 25.765625 27.7734375 C27.5069064 28.19699243 29.2530531 28.60045497 31 29 C31 29.66 31 30.32 31 31 C25.6822785 32.24200752 20.41798672 33.30834212 15 34 C14.90203125 33.33613281 14.8040625 32.67226562 14.703125 31.98828125 C13.48323488 24.70761234 13.48323488 24.70761234 9 19 C4.28910231 16.64455115 -0.00755225 16.56917477 -5 18 C-8.44354117 20.17092813 -10.70446104 22.11338311 -12 26 C-12.44104758 28.66679932 -12.73069084 31.3069084 -13 34 C-14.72926874 33.68806536 -16.45841044 33.37542638 -18.1875 33.0625 C-19.15042969 32.88847656 -20.11335938 32.71445313 -21.10546875 32.53515625 C-23.74239972 32.0476265 -26.3719905 31.53328895 -29 31 C-29 30.34 -29 29.68 -29 29 C-27.96359375 28.78085938 -26.9271875 28.56171875 -25.859375 28.3359375 C-24.48929119 28.01687689 -23.11951479 27.69649423 -21.75 27.375 C-21.06808594 27.23449219 -20.38617188 27.09398438 -19.68359375 26.94921875 C-15.76288709 25.99759092 -14.17285659 25.22753571 -11.703125 21.9765625 C-11.14109375 20.99429688 -10.5790625 20.01203125 -10 19 C-9.01 18.34 -8.02 17.68 -7 17 C-2.06063569 13.25159916 -1.31389353 5.71157246 0 0 Z " fill="#757575" transform="translate(97,78)"/>
<path d="M0 0 C0.66 0.66 1.32 1.32 2 2 C0.68 2.99 -0.64 3.98 -2 5 C-2 8.24250114 -1.96168492 10.89406234 0.25 13.4375 C7.04513424 18.29116731 15.97153816 19.38804355 24 21 C24.99644531 21.20109375 25.99289063 21.4021875 27.01953125 21.609375 C27.67308594 21.73828125 28.32664063 21.8671875 29 22 C29 22.33 29 22.66 29 23 C19.7426723 23.55543966 10.37258922 22.0345896 2.27124023 17.4284668 C1.46895493 16.9747319 0.66666962 16.52099701 -0.15992737 16.05351257 C-0.76715134 15.70585342 -1.37437531 15.35819427 -2 15 C-2.06948258 25.7527315 -2.12280245 36.50540966 -2.15543652 47.25831985 C-2.17109852 52.25123265 -2.19234663 57.24399195 -2.22631836 62.23681641 C-2.25889263 67.05435446 -2.27684899 71.87174479 -2.28463173 76.68938446 C-2.29017871 78.52821936 -2.3010105 80.36704609 -2.31719017 82.20581818 C-2.33893884 84.77964305 -2.34196801 87.35285597 -2.34057617 89.92675781 C-2.351362 90.68848801 -2.36214783 91.4502182 -2.3732605 92.23503113 C-2.3486384 96.43747357 -2.00933474 98.956662 1 102 C0.505 102.99 0.505 102.99 0 104 C-4.1892094 99.86315897 -5.57185483 97.28613657 -5.67764282 91.40711975 C-5.66246109 90.14683205 -5.66246109 90.14683205 -5.64697266 88.86108398 C-5.65573425 87.96115723 -5.66449585 87.06123047 -5.67352295 86.1340332 C-5.69546011 83.17089067 -5.68098558 80.20925041 -5.6640625 77.24609375 C-5.66743197 75.18156143 -5.67228568 73.11703104 -5.67855835 71.05250549 C-5.68592174 66.730856 -5.67524 62.40972401 -5.65185547 58.08813477 C-5.62335045 52.55062708 -5.63978644 47.01433013 -5.66971779 41.47686672 C-5.68778974 37.21571232 -5.68203344 32.95484478 -5.66907883 28.69368172 C-5.66574548 26.6519462 -5.66982938 24.61018456 -5.68147659 22.56847954 C-5.69418539 19.71479201 -5.67480865 16.86306319 -5.64697266 14.00952148 C-5.65709381 13.16730545 -5.66721497 12.32508942 -5.67764282 11.45735168 C-5.59748393 7.0186675 -5.40687024 5.49057812 -2.45956421 1.93690491 C-1.64790802 1.29772629 -0.83625183 0.65854767 0 0 Z " fill="#818181" transform="translate(63,46)"/>
<path d="M0 0 C5.28 0 10.56 0 16 0 C15.67 0.66 15.34 1.32 15 2 C14.34 2 13.68 2 13 2 C12.01 6.62 11.02 11.24 10 16 C8.68 16 7.36 16 6 16 C5.81824219 15.00097656 5.63648437 14.00195312 5.44921875 12.97265625 C5.19785156 11.68230469 4.94648437 10.39195312 4.6875 9.0625 C4.44386719 7.77472656 4.20023437 6.48695312 3.94921875 5.16015625 C3.63597656 4.11730469 3.32273437 3.07445313 3 2 C2.01 1.67 1.02 1.34 0 1 C0 0.67 0 0.34 0 0 Z " fill="#999999" transform="translate(90,120)"/>
<path d="M0 0 C-0.99 0.33 -1.98 0.66 -3 1 C-3.92441231 4.22547465 -3.92441231 4.22547465 -4.5 8 C-5.15625 11.875 -5.15625 11.875 -6 15 C-6.99 15.33 -7.98 15.66 -9 16 C-9 14.35 -9 12.7 -9 11 C-8.34 11 -7.68 11 -7 11 C-6.67 8.03 -6.34 5.06 -6 2 C-7.98 2 -9.96 2 -12 2 C-12 1.67 -12 1.34 -12 1 C-10.37681021 0.63762737 -8.7513642 0.28534843 -7.125 -0.0625 C-6.22007813 -0.25972656 -5.31515625 -0.45695312 -4.3828125 -0.66015625 C-2 -1 -2 -1 0 0 Z " fill="#767676" transform="translate(106,121)"/>
<path d="M0 0 C0 1.65 0 3.3 0 5 C-1.258125 4.87625 -2.51625 4.7525 -3.8125 4.625 C-4.87404297 4.52058594 -4.87404297 4.52058594 -5.95703125 4.4140625 C-8 4 -8 4 -11 2 C-3.375 0 -3.375 0 0 0 Z " fill="#E5E5E5" transform="translate(83,105)"/>
<path d="M0 0 C3.63 0.66 7.26 1.32 11 2 C8.09907498 3.93395001 7.10325263 4.30131941 3.8125 4.625 C2.554375 4.74875 1.29625 4.8725 0 5 C0 3.35 0 1.7 0 0 Z " fill="#E7E7E7" transform="translate(113,105)"/>
<path d="M0 0 C0.33 0.99 0.66 1.98 1 3 C-7.261959 8.55580866 -7.261959 8.55580866 -12 9 C-12.33 8.34 -12.66 7.68 -13 7 C-12.31292969 6.74605469 -11.62585938 6.49210937 -10.91796875 6.23046875 C-10.01691406 5.88628906 -9.11585937 5.54210938 -8.1875 5.1875 C-7.29417969 4.85105469 -6.40085938 4.51460937 -5.48046875 4.16796875 C-3.08075928 3.03802681 -1.71576647 1.98937707 0 0 Z " fill="#8B8B8B" transform="translate(135,57)"/>
<path d="M0 0 C1.32 0 2.64 0 4 0 C3.67 2.64 3.34 5.28 3 8 C2.34 8 1.68 8 1 8 C0.67 5.36 0.34 2.72 0 0 Z " fill="#EFEFEF" transform="translate(96,123)"/>
<path d="M0 0 C0.66 0 1.32 0 2 0 C2.33 2.64 2.66 5.28 3 8 C1.68 8 0.36 8 -1 8 C-0.67 5.36 -0.34 2.72 0 0 Z " fill="#EFEFEF" transform="translate(97,84)"/>
<path d="M0 0 C6.42857143 5.28571429 6.42857143 5.28571429 9 8 C5.23293356 7.47679633 2.72611199 6.72611199 0 4 C0 2.68 0 1.36 0 0 Z " fill="#898989" transform="translate(60,56)"/>
<path d="M0 0 C0.33 0.66 0.66 1.32 1 2 C1.66 2.33 2.32 2.66 3 3 C1.88625 3.474375 0.7725 3.94875 -0.375 4.4375 C-2.26710994 5.25306463 -4.15712709 6.07856355 -6 7 C-4.60667426 3.63279613 -3.0210714 2.0140476 0 0 Z " fill="#929292" transform="translate(93,92)"/>
</svg>
